<svg xmlns="http://www.w3.org/2000/svg" xmlns:xlink="http://www.w3.org/1999/xlink" width="100" zoomAndPan="magnify" viewBox="0 0 75 74.999997" height="100" preserveAspectRatio="xMidYMid meet" version="1.0"><defs><g/></defs><rect x="-7.5" width="90" fill="#ffffff" y="-7.5" height="89.999996" fill-opacity="1"/><rect x="-7.5" width="90" fill="#ffffff" y="-7.5" height="89.999996" fill-opacity="1"/><rect x="-7.5" width="90" fill="#212529" y="-7.5" height="89.999996" fill-opacity="1"/><g fill="#ffffff" fill-opacity="1"><g transform="translate(18.46875, 67.899987)"><g><path d="M 6.1875 -5.59375 L 2.484375 -5.59375 L 2.484375 -4.203125 L 5.8125 -4.203125 L 5.8125 -2.8125 L 2.484375 -2.8125 L 2.484375 -1.40625 L 6.296875 -1.40625 L 6.296875 0 L 0.703125 0 L 0.703125 -7 L 6.1875 -7 Z M 6.1875 -5.59375 "/></g></g></g><g fill="#ffffff" fill-opacity="1"><g transform="translate(25.207706, 67.899987)"><g/></g></g><g fill="#ffffff" fill-opacity="1"><g transform="translate(27.527347, 67.899987)"><g><path d="M 3.984375 -7.0625 C 4.503906 -7.0625 5.015625 -6.953125 5.515625 -6.734375 C 6.015625 -6.523438 6.441406 -6.238281 6.796875 -5.875 L 5.765625 -4.65625 C 5.546875 -4.9375 5.273438 -5.15625 4.953125 -5.3125 C 4.640625 -5.476562 4.328125 -5.5625 4.015625 -5.5625 C 3.460938 -5.5625 3 -5.367188 2.625 -4.984375 C 2.25 -4.597656 2.0625 -4.117188 2.0625 -3.546875 C 2.0625 -2.953125 2.25 -2.457031 2.625 -2.0625 C 3 -1.675781 3.460938 -1.484375 4.015625 -1.484375 C 4.304688 -1.484375 4.609375 -1.554688 4.921875 -1.703125 C 5.242188 -1.847656 5.523438 -2.046875 5.765625 -2.296875 L 6.8125 -1.203125 C 6.425781 -0.816406 5.972656 -0.503906 5.453125 -0.265625 C 4.941406 -0.0351562 4.429688 0.078125 3.921875 0.078125 C 2.867188 0.078125 1.988281 -0.265625 1.28125 -0.953125 C 0.582031 -1.640625 0.234375 -2.492188 0.234375 -3.515625 C 0.234375 -4.523438 0.585938 -5.367188 1.296875 -6.046875 C 2.015625 -6.722656 2.910156 -7.0625 3.984375 -7.0625 Z M 3.984375 -7.0625 "/></g></g></g><g fill="#ffffff" fill-opacity="1"><g transform="translate(34.446275, 67.899987)"><g><path d="M 4.015625 -7.0625 C 5.109375 -7.0625 6.015625 -6.722656 6.734375 -6.046875 C 7.453125 -5.367188 7.8125 -4.523438 7.8125 -3.515625 C 7.8125 -2.492188 7.445312 -1.640625 6.71875 -0.953125 C 6 -0.265625 5.097656 0.078125 4.015625 0.078125 C 2.941406 0.078125 2.039062 -0.257812 1.3125 -0.9375 C 0.59375 -1.625 0.234375 -2.484375 0.234375 -3.515625 C 0.234375 -4.535156 0.59375 -5.378906 1.3125 -6.046875 C 2.039062 -6.722656 2.941406 -7.0625 4.015625 -7.0625 Z M 4.046875 -5.5625 C 3.492188 -5.5625 3.023438 -5.363281 2.640625 -4.96875 C 2.253906 -4.570312 2.0625 -4.082031 2.0625 -3.5 C 2.0625 -2.914062 2.253906 -2.421875 2.640625 -2.015625 C 3.035156 -1.609375 3.5 -1.40625 4.03125 -1.40625 C 4.570312 -1.40625 5.03125 -1.609375 5.40625 -2.015625 C 5.789062 -2.421875 5.984375 -2.914062 5.984375 -3.5 C 5.984375 -4.082031 5.789062 -4.570312 5.40625 -4.96875 C 5.03125 -5.363281 4.578125 -5.5625 4.046875 -5.5625 Z M 4.046875 -5.5625 "/></g></g></g><g fill="#ffffff" fill-opacity="1"><g transform="translate(42.495028, 67.899987)"><g><path d="M 4.921875 0 L 3.875 -1.96875 L 2.484375 -1.96875 L 2.484375 0 L 0.703125 0 L 0.703125 -7 L 3.828125 -7 C 4.753906 -7 5.46875 -6.785156 5.96875 -6.359375 C 6.476562 -5.941406 6.734375 -5.34375 6.734375 -4.5625 C 6.734375 -3.476562 6.3125 -2.726562 5.46875 -2.3125 L 6.9375 0 Z M 2.484375 -3.375 L 3.828125 -3.375 C 4.210938 -3.375 4.507812 -3.46875 4.71875 -3.65625 C 4.9375 -3.851562 5.046875 -4.132812 5.046875 -4.5 C 5.046875 -4.863281 4.9375 -5.132812 4.71875 -5.3125 C 4.507812 -5.5 4.210938 -5.59375 3.828125 -5.59375 L 2.484375 -5.59375 Z M 2.484375 -3.375 "/></g></g></g><g fill="#ffffff" fill-opacity="1"><g transform="translate(49.733908, 67.899987)"><g><path d="M 0.703125 -7 L 3.75 -7 C 4.644531 -7 5.335938 -6.785156 5.828125 -6.359375 C 6.316406 -5.941406 6.5625 -5.34375 6.5625 -4.5625 C 6.5625 -3.738281 6.316406 -3.097656 5.828125 -2.640625 C 5.335938 -2.191406 4.644531 -1.96875 3.75 -1.96875 L 2.484375 -1.96875 L 2.484375 0 L 0.703125 0 Z M 2.484375 -5.59375 L 2.484375 -3.375 L 3.65625 -3.375 C 4.050781 -3.375 4.351562 -3.46875 4.5625 -3.65625 C 4.78125 -3.851562 4.890625 -4.132812 4.890625 -4.5 C 4.890625 -4.863281 4.78125 -5.132812 4.5625 -5.3125 C 4.351562 -5.5 4.050781 -5.59375 3.65625 -5.59375 Z M 2.484375 -5.59375 "/></g></g></g><g fill="#ffffff" fill-opacity="1"><g transform="translate(35.719923, 59.961512)"><g><path d="M 17.78125 -24.6875 L 22.875 -18.3125 L 2.03125 -1.625 L -18.015625 -26.6875 L 2.359375 -43 L 7.453125 -36.625 L -4.609375 -26.96875 L -2.265625 -24.03125 L 8.328125 -32.5 L 13.203125 -26.40625 L 2.609375 -17.9375 L 5.25 -14.65625 Z M 17.78125 -24.6875 "/></g></g></g></svg>